<?xml version="1.0" encoding="UTF-8" standalone="no"?>
<!-- Generator: Adobe Illustrator 15.1.0, SVG Export Plug-In . SVG Version: 6.00 Build 0)  -->

<svg
   xmlns:dc="http://purl.org/dc/elements/1.1/"
   xmlns:cc="http://creativecommons.org/ns#"
   xmlns:rdf="http://www.w3.org/1999/02/22-rdf-syntax-ns#"
   xmlns:svg="http://www.w3.org/2000/svg"
   xmlns="http://www.w3.org/2000/svg"
   xmlns:sodipodi="http://sodipodi.sourceforge.net/DTD/sodipodi-0.dtd"
   xmlns:inkscape="http://www.inkscape.org/namespaces/inkscape"
   version="1.1"
   id="Layer_1"
   x="0px"
   y="0px"
   width="449.74219"
   height="83.742188"
   viewBox="0 0 449.74218 83.742187"
   enable-background="new 0 0 500 350"
   xml:space="preserve"
   sodipodi:docname="maxfunding_logo_white_no_sub.svg"
   inkscape:version="0.92.2 (5c3e80d, 2017-08-06)"><metadata
     id="metadata3915"><rdf:RDF><cc:Work
         rdf:about=""><dc:format>image/svg+xml</dc:format><dc:type
           rdf:resource="http://purl.org/dc/dcmitype/StillImage" /><dc:title></dc:title></cc:Work></rdf:RDF></metadata><defs
     id="defs3913" /><sodipodi:namedview
     pagecolor="#ffffff"
     bordercolor="#666666"
     borderopacity="1"
     objecttolerance="10"
     gridtolerance="10"
     guidetolerance="10"
     inkscape:pageopacity="0"
     inkscape:pageshadow="2"
     inkscape:window-width="1920"
     inkscape:window-height="1018"
     id="namedview3911"
     showgrid="false"
     fit-margin-top="0"
     fit-margin-left="0"
     fit-margin-right="0"
     fit-margin-bottom="0"
     inkscape:zoom="2.4257143"
     inkscape:cx="242.464"
     inkscape:cy="-84.082812"
     inkscape:window-x="-8"
     inkscape:window-y="-8"
     inkscape:window-maximized="1"
     inkscape:current-layer="Layer_1"
     inkscape:pagecheckerboard="true" /><g
     id="g3828"
     transform="translate(-7.5359995,-7.175)"><path
       d="M 66.745,29.333 66.744,27.631 C 66.649,26.166 66.516,25.253 65.983,23.904 65.448,22.553 64.719,21.367 63.794,20.342 62.87,19.328 61.779,18.517 60.52,17.92 c -1.256,-0.593 -2.607,-0.898 -4.052,-0.896 -1.418,10e-4 -2.748,0.304 -3.989,0.897 -1.241,0.599 -2.333,1.402 -3.271,2.406 -0.941,1.008 -1.676,2.185 -2.21,3.537 -0.533,1.35 -0.8,2.795 -0.8,4.334 l 0.005,7.282 c -9.058,2.421 0,0 -9.058,2.421 L 37.139,28.2 c 0,-1.541 -0.275,-2.984 -0.826,-4.333 -0.547,-1.351 -1.287,-2.529 -2.212,-3.538 -0.925,-1.001 -2.006,-1.804 -3.25,-2.402 -1.244,-0.594 -2.573,-0.896 -3.989,-0.896 -1.415,0 -2.743,0.292 -3.987,0.876 -1.241,0.582 -2.334,1.381 -3.271,2.401 -0.938,1.025 -1.675,2.211 -2.207,3.561 -0.536,1.351 -0.804,2.796 -0.803,4.333 l 0.009,15.955 c -9.061,2.419 0,0 -9.061,2.419 L 7.536,27.214 C 7.534,18 13.071,12.881 16.33,10.533 19.421,8.302 22.932,7.185 26.861,7.185 c 2.89,-0.002 5.606,0.618 8.151,1.858 2.543,1.24 4.768,3.117 6.674,5.631 4.018,-4.996 8.94,-7.496 14.778,-7.499 2.63,0 5.123,0.557 7.479,1.674 2.354,1.114 4.407,2.622 6.155,4.521 1.748,1.899 3.135,4.129 4.163,6.689 1.025,2.56 1.265,3.808 1.542,6.857 0,0.001 0,0.001 -9.058,2.417 z"
       id="path3808"
       inkscape:connector-curvature="0"
       style="fill:#ffffff" /><path
       d="m 117.323,65.968 v -0.771 c -1.93,1.544 -4.025,2.727 -6.289,3.551 -2.263,0.823 -4.68,1.234 -7.253,1.236 -5.966,0.001 -11.061,-2.105 -15.278,-6.323 -4.22,-4.215 -6.331,-9.309 -6.333,-15.276 -0.002,-5.966 2.106,-11.063 6.325,-15.279 4.215,-4.217 9.308,-6.33 15.275,-6.332 5.915,-0.001 11.008,2.108 15.278,6.323 4.22,4.215 6.33,9.312 6.332,15.276 l 0.004,17.592 c 0,1.105 -0.393,2.051 -1.175,2.838 -0.784,0.783 -1.73,1.176 -2.836,1.176 -1.132,0 -2.09,-0.392 -2.874,-1.175 -0.783,-0.785 -1.176,-1.731 -1.176,-2.836 z M 103.771,34.84 c -1.904,10e-4 -3.677,0.361 -5.324,1.08 -1.644,0.722 -3.073,1.693 -4.282,2.914 -1.205,1.222 -2.165,2.655 -2.871,4.303 -0.708,1.645 -1.06,3.393 -1.06,5.245 0,1.854 0.355,3.602 1.063,5.247 0.708,1.646 1.667,3.082 2.873,4.301 1.21,1.222 2.639,2.194 4.284,2.913 1.646,0.718 3.42,1.079 5.325,1.079 1.878,-0.002 3.638,-0.365 5.285,-1.082 1.645,-0.721 3.079,-1.7 4.301,-2.936 1.222,-1.232 2.186,-2.666 2.892,-4.301 0.707,-1.63 1.061,-3.375 1.061,-5.229 -0.001,-1.851 -0.355,-3.594 -1.063,-5.226 -0.708,-1.634 -1.673,-3.066 -2.895,-4.298 -1.222,-1.236 -2.658,-2.213 -4.303,-2.934 -1.646,-0.716 -3.406,-1.078 -5.286,-1.076 z"
       id="path3810"
       inkscape:connector-curvature="0"
       style="fill:#ffffff" /><path
       d="m 144.901,48.33 -12.5,-14.889 c -0.62,-0.694 -0.931,-1.582 -0.93,-2.66 -0.001,-0.541 0.103,-1.056 0.309,-1.544 0.206,-0.489 0.488,-0.92 0.848,-1.291 0.36,-0.375 0.786,-0.663 1.271,-0.872 0.491,-0.203 1.018,-0.307 1.583,-0.309 1.21,0 2.211,0.438 3.01,1.313 L 150.148,42 161.794,28.072 c 0.772,-0.875 1.761,-1.313 2.971,-1.313 0.566,0 1.09,0.104 1.58,0.306 0.491,0.209 0.912,0.496 1.271,0.871 0.364,0.37 0.652,0.803 0.872,1.289 0.216,0.491 0.33,1.006 0.33,1.547 0,0.977 -0.324,1.86 -0.965,2.659 l -12.493,14.896 12.618,15.119 c 0.565,0.642 0.85,1.478 0.85,2.507 0,0.539 -0.112,1.058 -0.328,1.544 -0.22,0.488 -0.509,0.918 -0.871,1.293 -0.359,0.373 -0.782,0.664 -1.272,0.867 -0.49,0.207 -1.014,0.309 -1.58,0.309 -1.107,0.001 -2.07,-0.41 -2.893,-1.234 L 150.15,54.619 138.348,68.741 c -0.772,0.823 -1.723,1.233 -2.856,1.233 -0.564,0 -1.092,-0.101 -1.581,-0.309 -0.487,-0.202 -0.913,-0.494 -1.274,-0.866 -0.359,-0.374 -0.642,-0.804 -0.847,-1.292 -0.208,-0.487 -0.312,-1.004 -0.312,-1.543 0,-1.004 0.27,-1.838 0.812,-2.508 z"
       id="path3812"
       inkscape:connector-curvature="0"
       style="fill:#ffffff" /><path
       display="none"
       d="m 215.679,8.228 c 0.642,10e-4 1.196,0.232 1.659,0.696 0.463,0.46 0.695,1.029 0.695,1.696 0,0.643 -0.232,1.193 -0.693,1.66 -0.465,0.462 -1.017,0.695 -1.66,0.694 l -35.647,0.01 0.006,23.728 26.118,-0.008 c 0.669,10e-4 1.233,0.23 1.697,0.693 0.464,0.461 0.694,1.028 0.694,1.697 0.001,0.671 -0.229,1.236 -0.693,1.7 -0.463,0.463 -1.026,0.695 -1.698,0.694 l -26.117,0.007 0.007,26.08 c 0,0.669 -0.225,1.234 -0.674,1.697 -0.451,0.463 -1.012,0.694 -1.678,0.694 -0.668,0 -1.233,-0.229 -1.698,-0.693 -0.463,-0.46 -0.693,-1.028 -0.694,-1.697 l -0.015,-56.942 c 0,-0.667 0.23,-1.237 0.693,-1.698 0.464,-0.465 1.031,-0.695 1.697,-0.695 z"
       id="path3814"
       inkscape:connector-curvature="0"
       style="display:none;fill:#ffffff" /><path
       display="none"
       d="m 227.152,16.328 c 0,0.897 -0.311,1.658 -0.926,2.277 -0.619,0.616 -1.375,0.926 -2.275,0.925 -0.877,0 -1.629,-0.308 -2.26,-0.924 -0.63,-0.618 -0.943,-1.379 -0.945,-2.277 0.001,-0.875 0.315,-1.627 0.945,-2.255 0.629,-0.631 1.381,-0.949 2.258,-0.951 0.9,0.001 1.656,0.316 2.277,0.949 0.614,0.628 0.926,1.379 0.926,2.256 z m -5.591,12.809 c 0,-0.67 0.23,-1.236 0.693,-1.698 0.467,-0.463 1.03,-0.696 1.699,-0.696 0.666,0.001 1.239,0.232 1.718,0.696 0.476,0.459 0.712,1.028 0.713,1.697 l 0.01,38.423 c 0,0.669 -0.235,1.236 -0.712,1.696 -0.479,0.467 -1.051,0.695 -1.717,0.695 -0.67,0 -1.233,-0.229 -1.699,-0.695 -0.464,-0.459 -0.694,-1.025 -0.694,-1.695 z"
       id="path3816"
       inkscape:connector-curvature="0"
       style="display:none;fill:#ffffff" /><path
       display="none"
       d="m 236.645,29.132 c 0,-0.669 0.231,-1.237 0.694,-1.696 0.465,-0.465 1.028,-0.697 1.696,-0.697 0.67,10e-4 1.234,0.233 1.7,0.697 0.462,0.46 0.693,1.026 0.693,1.696 l 0.001,4.473 c 4.73,-4.578 9.799,-6.87 15.199,-6.871 5.557,-0.001 10.262,1.953 14.12,5.86 3.937,3.911 5.906,8.628 5.908,14.157 l 0.005,20.796 c 0,0.667 -0.238,1.235 -0.713,1.694 -0.477,0.468 -1.049,0.696 -1.717,0.695 -0.667,10e-4 -1.234,-0.227 -1.697,-0.693 -0.465,-0.461 -0.693,-1.026 -0.693,-1.697 l -0.006,-20.792 c 0,-4.246 -1.496,-7.821 -4.479,-10.726 -2.986,-3.008 -6.561,-4.512 -10.727,-4.51 -4.168,0.002 -7.755,1.508 -10.762,4.517 -2.959,2.931 -4.438,6.509 -4.436,10.728 l 0.006,20.792 c 0,0.669 -0.231,1.236 -0.693,1.697 -0.465,0.464 -1.029,0.692 -1.699,0.694 -0.668,0 -1.232,-0.229 -1.697,-0.694 -0.462,-0.458 -0.694,-1.026 -0.694,-1.694 z"
       id="path3818"
       inkscape:connector-curvature="0"
       style="display:none;fill:#ffffff" /><path
       display="none"
       d="m 321.299,62.094 c -5.195,5.225 -10.789,7.835 -16.783,7.837 -5.967,0.001 -11.059,-2.103 -15.277,-6.323 -4.223,-4.214 -6.332,-9.308 -6.332,-15.277 -0.002,-5.963 2.104,-11.059 6.324,-15.277 4.217,-4.217 9.307,-6.328 15.274,-6.33 5.968,-0.003 11.062,2.107 15.28,6.321 4.217,4.217 6.328,9.312 6.33,15.276 l 0.006,19.213 c 0,0.67 -0.23,1.237 -0.697,1.699 -0.458,0.463 -1.025,0.693 -1.696,0.693 -0.669,0 -1.239,-0.229 -1.716,-0.697 -0.477,-0.457 -0.711,-1.025 -0.711,-1.694 z M 304.505,31.506 c -4.627,0.001 -8.587,1.648 -11.877,4.942 -3.296,3.292 -4.939,7.254 -4.938,11.883 0.002,4.631 1.646,8.59 4.943,11.88 3.292,3.297 7.254,4.938 11.881,4.937 4.633,0 8.592,-1.646 11.884,-4.942 3.265,-3.268 4.899,-7.227 4.897,-11.883 -0.002,-4.656 -1.639,-8.614 -4.904,-11.879 -3.293,-3.293 -7.254,-4.938 -11.886,-4.938 z"
       id="path3820"
       inkscape:connector-curvature="0"
       style="display:none;fill:#ffffff" /><path
       display="none"
       d="m 332.322,29.107 c 0,-0.669 0.23,-1.233 0.693,-1.695 0.465,-0.465 1.027,-0.698 1.697,-0.698 0.67,0 1.236,0.232 1.696,0.697 0.465,0.46 0.694,1.026 0.695,1.696 l 10e-4,4.473 c 4.732,-4.576 9.799,-6.87 15.199,-6.871 5.559,-0.002 10.264,1.953 14.122,5.861 3.938,3.909 5.905,8.627 5.907,14.158 l 0.006,20.794 c 0,0.667 -0.238,1.235 -0.715,1.696 -0.477,0.465 -1.047,0.693 -1.717,0.693 -0.67,0.002 -1.234,-0.227 -1.697,-0.693 -0.463,-0.461 -0.695,-1.026 -0.695,-1.696 l -0.006,-20.793 c -10e-4,-4.246 -1.492,-7.818 -4.478,-10.725 -2.983,-3.009 -6.56,-4.513 -10.726,-4.511 -4.167,0.002 -7.755,1.508 -10.764,4.516 -2.957,2.932 -4.434,6.511 -4.434,10.727 l 0.006,20.793 c 0,0.67 -0.23,1.237 -0.695,1.698 -0.461,0.464 -1.027,0.694 -1.695,0.696 -0.67,-0.002 -1.234,-0.23 -1.697,-0.695 -0.465,-0.46 -0.695,-1.029 -0.695,-1.695 z"
       id="path3822"
       inkscape:connector-curvature="0"
       style="display:none;fill:#ffffff" /><path
       display="none"
       d="m 412.611,60.527 c 0.67,10e-4 1.236,0.24 1.699,0.713 0.465,0.479 0.693,1.049 0.693,1.717 0,0.67 -0.244,1.249 -0.73,1.74 -1.953,1.67 -4.127,2.957 -6.518,3.857 -2.391,0.9 -4.916,1.35 -7.564,1.351 -5.965,0.001 -11.059,-2.103 -15.275,-6.323 -4.223,-4.215 -6.332,-9.309 -6.332,-15.275 -0.002,-5.965 2.104,-11.062 6.324,-15.277 4.213,-4.219 9.307,-6.33 15.273,-6.332 2.648,0 5.178,0.449 7.582,1.349 2.404,0.9 4.572,2.188 6.5,3.856 0.232,0.23 0.432,0.515 0.6,0.848 0.166,0.335 0.25,0.683 0.25,1.042 0,0.672 -0.23,1.234 -0.693,1.699 -0.463,0.461 -1.027,0.693 -1.697,0.695 -0.615,0 -1.131,-0.193 -1.545,-0.579 -3.137,-2.751 -6.803,-4.126 -10.994,-4.125 -4.631,0.001 -8.59,1.649 -11.881,4.943 -3.266,3.265 -4.9,7.227 -4.898,11.882 0,4.655 1.639,8.615 4.904,11.879 3.293,3.296 7.252,4.938 11.883,4.938 2.033,-0.001 3.992,-0.374 5.885,-1.121 1.889,-0.744 3.594,-1.751 5.109,-3.01 0.384,-0.311 0.861,-0.467 1.425,-0.467 z"
       id="path3824"
       inkscape:connector-curvature="0"
       style="display:none;fill:#ffffff" /><path
       display="none"
       d="m 455.705,60.594 c 0.668,0 1.234,0.238 1.697,0.714 0.465,0.477 0.697,1.051 0.697,1.715 0,0.671 -0.205,1.225 -0.619,1.661 -4.01,3.473 -8.701,5.208 -14.076,5.21 -5.967,0.003 -11.063,-2.103 -15.281,-6.321 -4.217,-4.217 -6.33,-9.311 -6.332,-15.276 0,-5.966 2.109,-11.061 6.324,-15.281 4.217,-4.216 9.309,-6.327 15.277,-6.328 5.965,-0.002 11.057,2.108 15.279,6.321 4.219,4.217 6.326,9.31 6.328,15.276 0,0.671 -0.232,1.237 -0.693,1.698 -0.465,0.465 -1.027,0.693 -1.697,0.693 l -35.955,0.01 c 0.773,3.86 2.393,7.023 4.861,9.489 3.295,3.295 7.256,4.938 11.889,4.938 2.104,-0.002 4.061,-0.344 5.861,-1.027 1.799,-0.68 3.445,-1.663 4.938,-2.949 0.436,-0.364 0.936,-0.543 1.502,-0.543 z m 4.397,-14.699 c -0.723,-3.83 -2.332,-6.993 -4.826,-9.488 -3.293,-3.292 -7.256,-4.938 -11.883,-4.936 -4.629,0 -8.592,1.648 -11.883,4.942 -2.469,2.468 -4.086,5.633 -4.855,9.492 z"
       id="path3826"
       inkscape:connector-curvature="0"
       style="display:none;fill:#ffffff" /></g><polygon
     points="16.611,69.986 7.55,69.988 7.545,49.211 16.606,46.795 "
     id="polygon3830"
     style="fill:#ffffff"
     transform="translate(-7.5359995,-7.175)" /><polygon
     points="46.213,69.979 37.154,69.98 37.147,40.532 46.205,38.119 "
     id="polygon3832"
     style="fill:#ffffff"
     transform="translate(-7.5359995,-7.175)" /><polygon
     points="75.814,69.971 66.756,69.972 66.747,31.964 75.804,29.55 "
     id="polygon3834"
     style="fill:#ffffff"
     transform="translate(-7.5359995,-7.175)" /><path
     d="M 175.609,62.895 V 21.161 c 0,-6.498 1.929,-11.604 5.788,-15.318 1.973,-1.769 4.2,-3.046 6.68,-3.83 2.48,-0.784 5.534,-1.175 9.161,-1.175 h 11.228 v 7.05 h -11.054 c -4.613,0 -8.015,1.139 -10.205,3.417 -2.191,2.278 -3.286,5.853 -3.286,10.727 v 6.702 h 24.544 v 7.224 h -24.501 l -0.043,26.938 h -8.312 z"
     id="path3896"
     inkscape:connector-curvature="0"
     style="fill:#ffffff" /><path
     d="m 249.032,20.639 v 24.153 c 0,3.481 -0.755,6.674 -2.263,9.574 -1.479,2.901 -3.583,5.2 -6.311,6.897 -2.727,1.697 -5.846,2.546 -9.356,2.546 -3.539,0 -6.701,-0.842 -9.486,-2.524 -2.785,-1.624 -4.947,-3.88 -6.484,-6.767 -1.538,-2.887 -2.307,-6.129 -2.307,-9.727 V 20.639 h 7.354 v 22.195 c 0,3.771 0.914,7.006 2.742,9.704 1.798,2.67 4.467,4.004 8.007,4.004 3.743,0 6.484,-1.393 8.226,-4.178 1.711,-2.813 2.567,-6.193 2.567,-10.14 V 20.639 Z"
     id="path3898"
     inkscape:connector-curvature="0"
     style="fill:#ffffff" /><path
     d="M 284.944,62.895 V 40.701 c 0,-3.656 -0.907,-6.811 -2.72,-9.465 -1.813,-2.655 -4.446,-3.982 -7.899,-3.982 -3.685,0 -6.426,1.349 -8.225,4.047 -1.799,2.698 -2.698,5.977 -2.698,9.835 v 21.759 h -7.354 V 39.091 c 0,-3.539 0.762,-6.795 2.285,-9.77 1.522,-2.974 3.677,-5.331 6.462,-7.072 2.785,-1.741 5.962,-2.611 9.53,-2.611 2.698,0 5.157,0.464 7.377,1.393 2.22,0.929 4.112,2.256 5.679,3.982 1.567,1.727 2.771,3.764 3.612,6.114 0.841,2.35 1.262,4.976 1.262,7.877 v 23.891 z"
     id="path3900"
     inkscape:connector-curvature="0"
     style="fill:#ffffff" /><path
     d="m 341.7,0.838 v 39.124 c 0,4.236 -0.892,8.174 -2.676,11.814 -1.784,3.642 -4.309,6.558 -7.572,8.748 -3.263,2.19 -7,3.285 -11.206,3.285 -3.946,0 -7.58,-1.001 -10.901,-3.003 -3.322,-2.002 -5.948,-4.714 -7.877,-8.138 -1.93,-3.423 -2.894,-7.151 -2.894,-11.185 0,-3.975 0.949,-7.637 2.85,-10.988 1.901,-3.351 4.476,-5.998 7.725,-7.942 3.278,-1.944 6.861,-2.916 10.749,-2.916 2.118,0 3.961,0.261 5.527,0.783 1.566,0.522 3.51,1.509 5.831,2.959 v 8.225 c -3.018,-2.959 -6.542,-4.439 -10.575,-4.439 -2.523,0 -4.889,0.595 -7.093,1.784 -2.205,1.19 -3.968,2.887 -5.288,5.092 -1.32,2.205 -1.979,4.743 -1.979,7.616 0,2.727 0.609,5.229 1.827,7.507 1.219,2.277 2.887,4.076 5.005,5.396 2.117,1.321 4.482,1.98 7.094,1.98 3.017,0 5.592,-0.834 7.725,-2.502 2.132,-1.668 3.721,-3.858 4.765,-6.571 1.045,-2.713 1.567,-5.534 1.567,-8.465 V 0.838 Z"
     id="path3902"
     inkscape:connector-curvature="0"
     style="fill:#ffffff" /><path
     d="m 356.114,4.733 c 0.841,0.972 1.262,2.169 1.262,3.59 0,1.422 -0.421,2.626 -1.262,3.612 -0.842,0.986 -2.046,1.479 -3.612,1.479 -1.566,0 -2.771,-0.493 -3.612,-1.479 -0.842,-1.015 -1.262,-2.22 -1.262,-3.612 0,-1.363 0.428,-2.545 1.283,-3.546 0.855,-1.001 2.053,-1.501 3.591,-1.501 1.566,-10e-4 2.771,0.486 3.612,1.457 z m -7.398,58.162 V 20.639 h 7.615 v 42.256 z"
     id="path3904"
     inkscape:connector-curvature="0"
     style="fill:#ffffff" /><path
     d="M 392.984,62.895 V 40.701 c 0,-3.656 -0.907,-6.811 -2.721,-9.465 -1.814,-2.654 -4.446,-3.982 -7.898,-3.982 -3.685,0 -6.426,1.349 -8.225,4.047 -1.8,2.698 -2.698,5.977 -2.698,9.835 v 21.759 h -7.354 V 39.091 c 0,-3.539 0.762,-6.795 2.284,-9.77 1.523,-2.974 3.678,-5.331 6.463,-7.072 2.785,-1.741 5.962,-2.611 9.53,-2.611 2.698,0 5.157,0.464 7.377,1.393 2.219,0.929 4.112,2.256 5.679,3.982 1.566,1.727 2.771,3.764 3.612,6.114 0.841,2.35 1.262,4.976 1.262,7.877 v 23.891 z"
     id="path3906"
     inkscape:connector-curvature="0"
     style="fill:#ffffff" /><path
     id="path3908"
     style="fill:#ffffff"
     d="m 428.28711,19.638672 c -3.917,0 -7.54486,0.999953 -10.88086,3.001953 -3.307,2.002 -5.932,4.729641 -7.875,8.181641 -1.944,3.454 -2.91602,7.195515 -2.91602,11.228515 0,3.975 0.94213,7.630797 2.82813,10.966797 1.886,3.336 4.46061,5.968438 7.72461,7.898438 3.264,1.93 6.85448,2.894531 10.77148,2.894531 2.088,0 3.91542,-0.248234 5.48243,-0.740235 1.56598,-0.521999 3.52399,-1.450156 5.875,-2.785156 v -8.09375 c -3.33702,2.785 -7.00772,4.177735 -11.01172,4.177735 -4.15,0 -7.5436,-1.450563 -10.1836,-4.351563 -2.379,-2.757 -3.56836,-6.121656 -3.56836,-10.097656 0,-2.524 0.56074,-4.932609 1.67774,-7.22461 1.116,-2.292 2.71015,-4.140828 4.78515,-5.548828 2.074,-1.407 4.50407,-2.111328 7.28907,-2.111328 3.017,0 5.59909,0.842391 7.74609,2.525391 2.118,1.654 3.69914,3.829344 4.74414,6.527344 1.044,2.698 1.56641,5.541297 1.56641,8.529297 v 16.058593 c 0,2.756 -0.20338,4.974203 -0.60938,6.658203 -0.436,1.654 -1.17375,3.119485 -2.21875,4.396485 -2.815,3.51 -7.12278,5.265625 -12.92578,5.265625 -3.771,0 -7.90634,-0.652985 -12.40234,-1.958985 l -0.60938,6.658203 c 5.483,1.363 10.38599,2.046876 14.70899,2.046876 4.119,0 7.82061,-0.929157 11.09961,-2.785157 3.278,-1.857 5.82371,-4.439093 7.63671,-7.746093 1.814,-3.308 2.72071,-7.050516 2.72071,-11.228516 V 43.53125 c 0,-4.062 -0.89927,-7.936094 -2.69727,-11.621094 -1.8,-3.685 -4.35315,-6.642953 -7.66015,-8.876953 -3.28,-2.264 -6.97866,-3.394531 -11.09766,-3.394531 z"
     inkscape:connector-curvature="0" /></svg>